PathFileType	4	(X/Y/Z)	C:/Users/cpontonn/Documents/TRAVAIL - COURS/FORMATION DOCTORALE/COURS 2E/2023/TP OPENSIM/DATA/marche.trc	
DataRate	CameraRate	NumFrames	NumMarkers	Units	OrigDataRate	OrigDataStartFrame	OrigNumFrames	
100.00	100.00	7	38	mm	100.00	425	414	
Frame#	Time	LFHD			LBHD			RFHD			RBHD			C7			T10			CLAV			STRN			LSHO			LRAD			LHUM			LWRB			LWRA			LCAR			RSHO			RRAD			RHUM			RWRB			RWRA			RCAR			LFWT			LBWT			RFWT			RBWT			LKNE			LKNI			LANE			LHEE			LANI			LTAR			LTOE			RKNE			RKNI			RANE			RHEE			RANI			RTAR			RTOE			
		X1	Y1	Z1	X2	Y2	Z2	X3	Y3	Z3	X4	Y4	Z4	X5	Y5	Z5	X6	Y6	Z6	X7	Y7	Z7	X8	Y8	Z8	X9	Y9	Z9	X10	Y10	Z10	X11	Y11	Z11	X12	Y12	Z12	X13	Y13	Z13	X14	Y14	Z14	X15	Y15	Z15	X16	Y16	Z16	X17	Y17	Z17	X18	Y18	Z18	X19	Y19	Z19	X20	Y20	Z20	X21	Y21	Z21	X22	Y22	Z22	X23	Y23	Z23	X24	Y24	Z24	X25	Y25	Z25	X26	Y26	Z26	X27	Y27	Z27	X28	Y28	Z28	X29	Y29	Z29	X30	Y30	Z30	X31	Y31	Z31	X32	Y32	Z32	X33	Y33	Z33	X34	Y34	Z34	X35	Y35	Z35	X36	Y36	Z36	X37	Y37	Z37	X38	Y38	Z38	

311	3.100	-1594.98645	201.94690	1675.67981	-1453.81775	202.72871	1721.52820	-1599.87122	338.76212	1681.34265	-1443.44189	328.02310	1725.36218	-1333.44226	279.41937	1621.50134	-1209.59705	272.04971	1417.06958	-1434.55664	301.42047	1513.77856	-1432.06494	314.34100	1337.00769	-1404.60852	89.81570	1569.70654	-1354.68958	16.91471	1200.53088	-1327.31580	79.01505	1206.06299	-1518.75476	18.93238	999.07001	-1557.57849	80.63205	1026.08032	-1601.69958	24.15896	962.07501	-1349.76550	476.08725	1575.65796	-1177.85437	543.46771	1244.04053	-1157.44885	488.96744	1259.68274	-1178.86218	571.02679	983.28979	-1221.10144	513.07587	971.36151	-1196.53735	567.89636	896.34686	-1443.25867	229.88071	1072.00989	-1242.85999	272.33731	1109.05249	-1417.26782	417.43106	1074.90833	-1231.15698	352.71149	1105.81860	-1386.21509	182.14778	555.15662	-1379.79724	296.20459	524.41046	-1345.87341	228.41100	102.93465	-1260.09595	276.58405	27.21582	-1343.85925	318.26392	112.95427	-1500.99585	217.20970	46.80490	-1548.70386	304.16199	46.42954	-1469.85413	478.36066	573.44092	-1477.85999	381.59744	524.53253	-1232.72644	451.70615	171.81728	-1148.43237	377.22427	133.41261	-1273.69336	370.21088	181.84218	-1344.94409	510.31689	59.16672	-1413.25635	438.64069	36.59655 
312	3.110	-1607.97705	202.92296	1677.91077	-1466.38269	203.96080	1723.05103	-1612.92065	339.72455	1682.99231	-1456.26489	329.25735	1726.24585	-1346.78137	280.36511	1622.50818	-1223.03040	272.45297	1418.14343	-1447.93860	302.02341	1514.76331	-1445.59253	314.41037	1338.09937	-1417.65295	90.60120	1571.48572	-1369.05566	14.65378	1202.62085	-1342.17798	77.33475	1207.36975	-1539.07666	17.85653	1005.11194	-1577.02832	79.51883	1033.46606	-1623.10767	23.37890	970.51654	-1363.18396	476.85281	1576.25500	-1189.27710	542.53687	1245.46057	-1169.38538	487.86090	1261.25244	-1188.67932	569.48248	984.60114	-1231.65259	512.07697	972.61310	-1206.23120	566.57977	897.64374	-1455.83594	229.23840	1072.32837	-1255.75427	272.64313	1109.90112	-1430.67651	416.88919	1075.80017	-1244.27466	353.07501	1106.60510	-1390.63586	181.98630	555.25348	-1382.64148	296.24237	524.26709	-1346.18262	228.38914	103.07388	-1260.17114	276.57266	27.49985	-1344.03345	318.27594	113.08271	-1500.88953	217.45721	46.82321	-1548.89905	304.14462	46.02657	-1489.14868	477.91351	576.76575	-1498.63416	381.45663	528.11078	-1273.82568	452.22794	162.47716	-1192.76196	377.92136	118.43523	-1313.27869	370.16913	173.87914	-1391.84094	512.94397	57.83318	-1461.93103	442.14417	38.58555 
313	3.120	-1621.00964	203.98569	1679.84558	-1479.09595	205.19212	1724.20178	-1625.93481	340.73685	1684.38110	-1469.04321	330.56573	1726.83716	-1360.15027	281.40445	1623.20752	-1236.47437	272.90332	1418.86426	-1461.29736	302.63922	1515.43604	-1459.14099	314.47687	1338.80981	-1430.73877	91.46217	1572.92017	-1384.06262	12.87673	1204.31604	-1356.96484	75.73793	1208.42993	-1559.02441	16.72401	1010.85181	-1595.97266	78.51373	1040.41357	-1643.02991	22.93898	978.29681	-1376.70215	477.65802	1576.48145	-1200.87708	541.71735	1246.46521	-1181.42920	486.89301	1262.44824	-1198.83350	568.07593	985.56323	-1242.49792	511.21234	973.49640	-1216.21252	565.42578	898.55493	-1468.39917	228.68207	1072.45020	-1268.57971	272.93448	1110.55688	-1444.10974	416.47302	1076.31860	-1257.39502	353.39935	1107.14990	-1393.53308	182.34567	554.92883	-1385.65674	296.39175	524.20648	-1345.77258	228.73509	103.15690	-1260.14465	276.52029	27.82713	-1343.86975	318.07510	113.23298	-1501.27417	217.26036	46.41790	-1548.95569	304.20248	45.48810	-1507.88086	477.61865	579.48199	-1518.59619	381.56021	530.99878	-1314.97083	452.75101	153.97884	-1237.24036	378.34512	104.49778	-1355.38367	370.40860	166.56760	-1438.68250	515.26831	57.17541	-1510.34595	445.20526	41.49901 
314	3.130	-1634.06262	205.12106	1681.50171	-1491.78455	206.45038	1725.04761	-1638.93140	341.77737	1685.46484	-1481.83496	331.80865	1727.07397	-1373.55591	282.42120	1623.53320	-1249.88916	273.45322	1419.31116	-1474.71753	303.25577	1515.78162	-1472.60046	314.55862	1339.14648	-1443.78931	92.36147	1574.00635	-1398.94739	11.20548	1205.74353	-1371.67554	74.21838	1209.23865	-1578.48694	15.73668	1016.21527	-1614.49255	77.60249	1046.90894	-1663.41028	22.29038	985.96387	-1390.30054	478.50314	1576.38354	-1212.66162	540.98572	1247.09241	-1193.67322	486.05154	1263.23608	-1209.18274	566.81256	986.13000	-1253.43604	510.42282	973.96222	-1226.39709	564.35199	899.15649	-1480.98999	228.21472	1072.32031	-1281.54468	273.25079	1110.95959	-1457.57251	416.09732	1076.45667	-1270.60156	353.64328	1107.40356	-1397.34570	182.56023	554.68408	-1388.84778	296.58478	524.20117	-1346.77649	228.57401	103.38894	-1260.23425	276.57895	28.07167	-1345.03967	319.06943	113.28233	-1500.62305	217.48097	45.63058	-1549.10803	304.28580	44.95090	-1526.17773	477.52640	581.83551	-1538.38159	381.71475	533.62445	-1356.78418	453.68018	145.80569	-1282.42920	378.65186	91.53982	-1395.27148	372.04965	160.50464	-1485.49414	517.29950	57.15926	-1558.26477	447.77600	45.22680 
315	3.140	-1647.09436	206.25841	1682.86548	-1504.47485	207.71674	1725.53979	-1651.90833	342.89435	1686.23254	-1494.56372	333.05359	1726.94495	-1386.94031	283.49835	1623.58594	-1263.31274	274.03055	1419.42639	-1488.12280	303.92093	1515.77161	-1486.04639	314.69495	1339.14050	-1456.82947	93.26250	1574.76147	-1413.76648	9.62926	1206.79907	-1386.27905	72.78250	1209.71753	-1597.54443	14.82043	1021.23663	-1632.59277	76.78156	1052.88965	-1684.17981	21.47456	993.46301	-1403.97095	479.38498	1575.95178	-1224.69006	540.34302	1247.36926	-1206.08740	485.33832	1263.68164	-1220.14001	565.78680	986.45148	-1264.59558	509.76160	974.06305	-1236.86682	563.39642	899.38263	-1493.59192	227.77213	1071.94348	-1294.54175	273.43188	1111.12146	-1471.06775	415.74344	1076.21143	-1283.88928	353.91211	1107.51868	-1401.37000	182.82004	554.47137	-1392.11902	296.83295	524.13843	-1347.06592	228.76259	103.52978	-1260.30786	276.63528	28.33184	-1345.67212	319.24530	113.56960	-1500.76733	217.56889	45.52004	-1549.96631	304.03406	45.17910	-1544.07336	477.58600	583.45795	-1557.72717	381.93295	535.78064	-1398.66675	454.52121	138.47495	-1327.90955	379.25980	79.74543	-1436.64087	372.87103	155.13344	-1532.16516	518.85120	57.74801	-1605.70386	449.49374	49.34730 
316	3.150	-1660.19836	207.44803	1683.87878	-1517.29822	208.98717	1725.68835	-1664.89819	344.06967	1686.63464	-1507.32227	334.33127	1726.46875	-1400.35034	284.60245	1623.33813	-1276.66748	274.74603	1419.24915	-1501.56665	304.56039	1515.46423	-1499.48621	314.89456	1338.80029	-1469.88513	94.23074	1575.22632	-1428.46680	8.15250	1207.60913	-1400.80725	71.43235	1209.93213	-1616.18994	13.96753	1025.82300	-1650.26685	76.04772	1058.32813	-1702.53931	21.17097	999.82501	-1417.66101	480.29660	1575.20752	-1236.99585	539.82513	1247.33411	-1218.76489	484.68866	1263.75842	-1231.05420	564.74445	986.41949	-1276.10315	509.20584	973.91980	-1247.54053	562.54950	899.25812	-1506.25793	227.28523	1071.26794	-1307.60242	273.67578	1111.04517	-1484.67078	415.34366	1075.67883	-1297.25989	354.17990	1107.38611	-1406.30237	182.74881	554.38220	-1395.52356	297.04114	524.09113	-1347.38940	228.96089	103.70151	-1260.36829	276.69113	28.60327	-1345.97632	319.45001	113.62977	-1500.88965	217.60751	45.38464	-1548.90466	304.08383	43.75360	-1561.52966	477.68372	584.53308	-1576.61841	382.23987	537.48901	-1441.36304	458.06616	131.59059	-1372.83301	379.76477	69.43474	-1479.49133	372.81241	150.55902	-1578.65161	519.92218	58.90845	-1653.36353	450.22385	53.38671 
317	3.160	-1673.34290	208.68436	1684.59827	-1530.14197	210.27216	1725.47998	-1677.88379	345.28796	1686.72449	-1520.11621	335.59155	1725.68457	-1413.68750	285.73883	1622.73279	-1290.01868	275.48654	1418.74695	-1515.00098	305.28650	1514.82739	-1512.95984	315.18073	1338.17151	-1482.99597	95.26532	1575.37439	-1443.04407	6.81204	1208.23608	-1415.25708	70.22369	1209.93018	-1634.37720	13.15514	1029.98486	-1667.58752	75.34796	1063.25244	-1722.21960	20.39503	1006.25861	-1431.41101	481.21353	1574.21497	-1249.57239	539.44116	1246.91577	-1231.64722	484.23581	1263.52490	-1242.24707	563.90845	985.99060	-1287.65808	508.68707	973.36908	-1258.44641	561.80841	898.81378	-1518.94434	226.75206	1070.40063	-1320.72351	273.95450	1110.69507	-1498.36719	414.91635	1074.83582	-1310.74219	354.47592	1106.97852	-1410.60510	182.82884	554.01172	-1399.04370	297.16418	523.92236	-1347.74548	229.14832	103.90202	-1260.47229	276.73785	28.91739	-1346.41272	319.58130	113.55271	-1501.83264	217.41046	45.85879	-1549.05188	304.41592	42.96552	-1577.96570	477.84491	585.02289	-1595.17639	382.59155	538.81226	-1483.40540	459.06427	126.03857	-1418.31689	380.70782	60.61885	-1521.01184	372.82123	147.21432	-1624.54358	521.75208	60.15163	-1699.85474	450.88904	59.21596 
